<?xml version="1.0" encoding="UTF-8" standalone="no"?>
<svg width="140" height="40" viewBox="0 0 140 40" xmlns="http://www.w3.org/2000/svg">
  <!-- Pointy heart shape - smaller and aligned -->
  <g transform="translate(5,4) scale(0.16)">
    <path d="M124 187.5l-16-14.2-16-14.1-16-14.2-16-14.1-8.5-7.5c-7.5-6.7-13.4-15.2-16.2-24.5-1.7-5.5-2-17.4-0.5-23.1 3.6-14.1 13.6-25.3 26.7-30.1 17.9-6.5 37.5-1.2 49.5 13.4l5.5 6.7 5.5-6.7c12-14.6 31.6-19.9 49.5-13.4 13.1 4.8 23.1 16 26.7 30.1 1.5 5.7 1.2 17.6-0.5 23.1-2.8 9.3-8.7 17.8-16.2 24.5l-8.5 7.5-16 14.1-16 14.2-16 14.1-16 14.2c-0.5 0.5-1.4 0.8-2 0.8s-1.5-0.3-2-0.8z" 
          fill="#0ea5e9"/>
    <path d="M128 96h-20V76c0-2.2-1.8-4-4-4s-4 1.8-4 4v20H80c-2.2 0-4 1.8-4 4s1.8 4 4 4h20v20c0 2.2 1.8 4 4 4s4-1.8 4-4v-20h20c2.2 0 4-1.8 4-4s-1.8-4-4-4z" 
          fill="white"/>
  </g>
  
  <!-- ReLife text - adjusted position -->
  <text x="35" y="27" font-family="Inter, Arial" font-size="22" font-weight="700" fill="#0f172a">
    Re<tspan fill="#0ea5e9">Life</tspan>
  </text>
</svg>